<?xml version="1.0" standalone="no"?>
 <!DOCTYPE svg PUBLIC "-//W3C//DTD SVG 1.1//EN" 
 "http://www.w3.org/Graphics/SVG/1.1/DTD/svg11.dtd"> 
<svg
  xmlns:svg="http://www.w3.org/2000/svg"
  xmlns="http://www.w3.org/2000/svg"
  xmlns:xlink="http://www.w3.org/1999/xlink"
  xmlns:inkscape="http://www.inkscape.org/namespaces/inkscape"
  version="1.1"
  width="297.0022mm" height="210.0072mm" viewBox="0.0000 0.0000 297.0022 210.0072">
<title>SVG Image created as board-top.svg date 2026-09-19T08:18:20 </title>
  <desc>Image generated by PCBNEW </desc>
<g style="fill:#000000; fill-opacity:1.0000;stroke:#000000; stroke-opacity:1.0000;
stroke-linecap:round; stroke-linejoin:round;"
 transform="translate(0 0) scale(1 1)">
<path style="fill:#C83434; fill-opacity:1.0000; stroke:none;fill-rule:evenodd;"
d="M 54.6808,88.6041
54.6808,75.6371
67.6478,75.6371
67.6478,88.6041
Z" /> 
</g>
<g style="fill:#C83434; fill-opacity:1.0000; stroke:none;">
<circle cx="61.1643" cy="101.4949" r="6.4835" /> 
<circle cx="61.1643" cy="120.8691" r="6.4835" /> 
<path style="fill:#C83434; fill-opacity:1.0000; stroke:none;fill-rule:evenodd;"
d="M 166.2354,98.9015
166.3515,98.3177
166.6822,97.8228
167.1772,97.4921
167.7610,97.3759
170.8120,97.3759
171.3958,97.4921
171.8907,97.8228
172.2214,98.3177
172.3376,98.9015
172.3376,103.0967
172.2214,103.6805
171.8907,104.1754
171.3958,104.5061
170.8120,104.6222
167.7610,104.6222
167.1772,104.5061
166.6822,104.1754
166.3515,103.6805
166.2354,103.0967
Z" /> 
<path style="fill:#C83434; fill-opacity:1.0000; stroke:none;fill-rule:evenodd;"
d="M 178.8211,98.9015
178.9372,98.3177
179.2679,97.8228
179.7628,97.4921
180.3466,97.3759
183.3977,97.3759
183.9815,97.4921
184.4764,97.8228
184.8071,98.3177
184.9232,98.9015
184.9232,103.0967
184.8071,103.6805
184.4764,104.1754
183.9815,104.5061
183.3977,104.6222
180.3466,104.6222
179.7628,104.5061
179.2679,104.1754
178.9372,103.6805
178.8211,103.0967
Z" /> 
<path style="fill:#C83434; fill-opacity:1.0000; stroke:none;fill-rule:evenodd;"
d="M 116.6556,79.0695
117.2394,79.1857
117.7343,79.5164
118.0650,80.0113
118.1811,80.5951
118.1811,83.6461
118.0650,84.2299
117.7343,84.7248
117.2394,85.0555
116.6556,85.1717
112.4604,85.1717
111.8766,85.0555
111.3817,84.7248
111.0510,84.2299
110.9348,83.6461
110.9348,80.5951
111.0510,80.0113
111.3817,79.5164
111.8766,79.1857
112.4604,79.0695
Z" /> 
<path style="fill:#C83434; fill-opacity:1.0000; stroke:none;fill-rule:evenodd;"
d="M 116.6556,91.6552
117.2394,91.7713
117.7343,92.1020
118.0650,92.5969
118.1811,93.1807
118.1811,96.2318
118.0650,96.8156
117.7343,97.3105
117.2394,97.6412
116.6556,97.7573
112.4604,97.7573
111.8766,97.6412
111.3817,97.3105
111.0510,96.8156
110.9348,96.2318
110.9348,93.1807
111.0510,92.5969
111.3817,92.1020
111.8766,91.7713
112.4604,91.6552
Z" /> 
<circle cx="197.1275" cy="108.6267" r="2.2883" /> 
</g>
<g style="fill:none; 
stroke:#C83434; stroke-width:3.8138; stroke-opacity:1; 
stroke-linecap:round; stroke-linejoin:round;">
<path d="M61.1643 82.1206
L114.5580 82.1206
" />
</g>
<g style="fill:none; 
stroke:#C83434; stroke-width:1.9069; stroke-opacity:1; 
stroke-linecap:round; stroke-linejoin:round;">
<path d="M98.4636 94.7062
L114.5580 94.7062
" />
<path d="M91.6750 101.4949
L98.4636 94.7062
" />
<path d="M162.9937 94.7062
L169.2865 100.9991
" />
<path d="M114.5580 94.7062
L162.9937 94.7062
" />
<path d="M61.1643 101.4949
L91.6750 101.4949
" />
</g>
<g style="fill:none; 
stroke:#C83434; stroke-width:3.8138; stroke-opacity:1; 
stroke-linecap:round; stroke-linejoin:round;">
<path d="M181.8721 100.9991
L189.4998 100.9991
" />
<path d="M189.4998 100.9991
L197.1275 108.6267
" />
</g>
<g style="fill:none; 
stroke:#F2EDA1; stroke-width:1.1441; stroke-opacity:1; 
stroke-linecap:round; stroke-linejoin:round;">
<text x="61.1643" y="67.7806"
textLength="14.9829" font-size="10.1702" lengthAdjust="spacingAndGlyphs"
text-anchor="middle" opacity="0" stroke-opacity="0">J1</text>
<g class="stroked-text"><desc>J1</desc>
<path d="M58.6218 59.8083
L58.6218 65.2566
" />
<path d="M58.6218 65.2566
L58.2585 66.3463
" />
<path d="M58.2585 66.3463
L57.5321 67.0727
" />
<path d="M57.5321 67.0727
L56.4424 67.4360
" />
<path d="M56.4424 67.4360
L55.7160 67.4360
" />
<path d="M66.2494 67.4360
L61.8908 67.4360
" />
<path d="M64.0701 67.4360
L64.0701 59.8083
" />
<path d="M64.0701 59.8083
L63.3437 60.8980
" />
<path d="M63.3437 60.8980
L62.6172 61.6244
" />
<path d="M62.6172 61.6244
L61.8908 61.9876
" />
</g><text x="175.5793" y="93.9053"
textLength="16.7990" font-size="10.1702" lengthAdjust="spacingAndGlyphs"
text-anchor="middle" opacity="0" stroke-opacity="0">R2</text>
<g class="stroked-text"><desc>R2</desc>
<path d="M174.3080 93.5607
L171.7655 89.9285
" />
<path d="M169.9494 93.5607
L169.9494 85.9331
" />
<path d="M169.9494 85.9331
L172.8551 85.9331
" />
<path d="M172.8551 85.9331
L173.5816 86.2963
" />
<path d="M173.5816 86.2963
L173.9448 86.6595
" />
<path d="M173.9448 86.6595
L174.3080 87.3859
" />
<path d="M174.3080 87.3859
L174.3080 88.4756
" />
<path d="M174.3080 88.4756
L173.9448 89.2020
" />
<path d="M173.9448 89.2020
L173.5816 89.5653
" />
<path d="M173.5816 89.5653
L172.8551 89.9285
" />
<path d="M172.8551 89.9285
L169.9494 89.9285
" />
<path d="M177.2138 86.6595
L177.5770 86.2963
" />
<path d="M177.5770 86.2963
L178.3035 85.9331
" />
<path d="M178.3035 85.9331
L180.1196 85.9331
" />
<path d="M180.1196 85.9331
L180.8460 86.2963
" />
<path d="M180.8460 86.2963
L181.2092 86.6595
" />
<path d="M181.2092 86.6595
L181.5725 87.3859
" />
<path d="M181.5725 87.3859
L181.5725 88.1124
" />
<path d="M181.5725 88.1124
L181.2092 89.2020
" />
<path d="M181.2092 89.2020
L176.8506 93.5607
" />
<path d="M176.8506 93.5607
L181.5725 93.5607
" />
</g><g transform="rotate(-90.000000 125.4655 88.4134)">
<text x="125.4655" y="92.2273"
textLength="16.7990" font-size="10.1702" lengthAdjust="spacingAndGlyphs"
text-anchor="middle" opacity="0" stroke-opacity="0">R1</text>
</g>
<g class="stroked-text"><desc>R1</desc>
<path d="M128.9348 89.6847
L125.3025 92.2273
" />
<path d="M128.9348 94.0434
L121.3071 94.0434
" />
<path d="M121.3071 94.0434
L121.3071 91.1376
" />
<path d="M121.3071 91.1376
L121.6703 90.4111
" />
<path d="M121.6703 90.4111
L122.0335 90.0479
" />
<path d="M122.0335 90.0479
L122.7600 89.6847
" />
<path d="M122.7600 89.6847
L123.8496 89.6847
" />
<path d="M123.8496 89.6847
L124.5761 90.0479
" />
<path d="M124.5761 90.0479
L124.9393 90.4111
" />
<path d="M124.9393 90.4111
L125.3025 91.1376
" />
<path d="M125.3025 91.1376
L125.3025 94.0434
" />
<path d="M128.9348 82.4203
L128.9348 86.7789
" />
<path d="M128.9348 84.5996
L121.3071 84.5996
" />
<path d="M121.3071 84.5996
L122.3968 85.3260
" />
<path d="M122.3968 85.3260
L123.1232 86.0525
" />
<path d="M123.1232 86.0525
L123.4864 86.7789
" />
</g></g>
<g style="fill:none; 
stroke:#F2EDA1; stroke-width:0.9153; stroke-opacity:1; 
stroke-linecap:round; stroke-linejoin:round;">
<path d="M50.6382 71.5944
L61.1643 71.5944
" />
<path d="M50.6382 82.1206
L50.6382 71.5944
" />
<path d="M50.6382 91.8077
L50.6382 131.3953
" />
<path d="M50.6382 91.8077
L71.6905 91.8077
" />
<path d="M50.6382 131.3953
L71.6905 131.3953
" />
<path d="M71.6905 91.8077
L71.6905 131.3953
" />
<path d="M173.7696 97.0136
L177.3890 97.0136
" />
<path d="M173.7696 104.9845
L177.3890 104.9845
" />
<path d="M110.5725 86.6037
L110.5725 90.2232
" />
<path d="M118.5434 86.6037
L118.5434 90.2232
" />
<path style="fill:none; 
stroke:#D0D2CD; stroke-width:0.3814; stroke-opacity:1; 
stroke-linecap:round; stroke-linejoin:round;fill:none"
d="M 38.2813,28.7269
267.1113,28.7269
267.1113,181.2802
38.2813,181.2802
Z" /> 
</g>
<g style="fill:#FFFFFF; fill-opacity:1.0000; stroke:none;">
<circle cx="197.1275" cy="108.6267" r="1.1441" /> 
</g>
<g style="fill:#FFFFFF; fill-opacity:1.0000; stroke:none;">
<circle cx="61.1643" cy="82.1206" r="3.8138" /> 
</g>
<g style="fill:#FFFFFF; fill-opacity:1.0000; stroke:none;">
<circle cx="61.1643" cy="101.4949" r="3.8138" /> 
</g>
<g style="fill:#FFFFFF; fill-opacity:1.0000; stroke:none;">
<circle cx="61.1643" cy="120.8691" r="3.8138" /> 
</g> 
</svg>
